<?xml version="1.0" encoding="utf-8"?>
<!-- Generator: Adobe Illustrator 16.0.0, SVG Export Plug-In . SVG Version: 6.00 Build 0)  -->
<!DOCTYPE svg PUBLIC "-//W3C//DTD SVG 1.1//EN" "http://www.w3.org/Graphics/SVG/1.1/DTD/svg11.dtd">
<svg version="1.1" id="Livello_1" xmlns="http://www.w3.org/2000/svg" xmlns:xlink="http://www.w3.org/1999/xlink" x="0px" y="0px"
	 width="28px" height="30.343px" viewBox="0 0 28 30.343" enable-background="new 0 0 28 30.343" xml:space="preserve">
<g id="Livello_114">
	<path fill="#4D9B5D" d="M28,25.11c0-0.77-0.625-1.395-1.396-1.395c-1.926,0-3.487-1.562-3.487-3.488v-8.37
		c0-4.363-3.099-8.006-7.228-8.872c0.129-0.271,0.202-0.573,0.202-0.894C16.093,0.937,15.156,0,14,0s-2.092,0.938-2.092,2.094
		c0,0.32,0.074,0.621,0.202,0.893c-4.128,0.866-7.227,4.509-7.227,8.872v8.37c0,1.927-1.562,3.487-3.488,3.487
		C0.624,23.716,0,24.341,0,25.111c0,0.77,0.625,1.395,1.395,1.395h3.488h6.327c0,2.119,1.25,3.837,2.79,3.837
		s2.791-1.718,2.791-3.837h6.327h3.487l0,0C27.375,26.505,28,25.881,28,25.11"/>
</g>
<g id="Livello_1_1_">
</g>
</svg>
