<?xml version="1.0" encoding="utf-8"?>
<!-- Generator: Adobe Illustrator 16.0.0, SVG Export Plug-In . SVG Version: 6.00 Build 0)  -->
<!DOCTYPE svg PUBLIC "-//W3C//DTD SVG 1.1//EN" "http://www.w3.org/Graphics/SVG/1.1/DTD/svg11.dtd">
<svg version="1.1" id="Layer_1" xmlns="http://www.w3.org/2000/svg" xmlns:xlink="http://www.w3.org/1999/xlink" x="0px" y="0px"
	 width="35px" height="30.62px" viewBox="-5.503 -3.806 35 30.62" enable-background="new -5.503 -3.806 35 30.62"
	 xml:space="preserve">
<g>
	<g>
		<path fill="#4D9B5D" d="M28.403,19.533H-4.409c-0.603,0-1.094,0.526-1.094,1.17v4.988c0,0.618,0.491,1.123,1.094,1.123h32.812
			c0.604,0,1.094-0.505,1.094-1.123v-4.988C29.497,20.06,29.007,19.533,28.403,19.533z M28.403,7.864H-4.409
			c-0.603,0-1.094,0.525-1.094,1.168v4.99c0,0.618,0.491,1.122,1.094,1.122h32.812c0.604,0,1.094-0.504,1.094-1.122v-4.99
			C29.497,8.39,29.007,7.864,28.403,7.864z M28.403-3.806H-4.409c-0.603,0-1.094,0.526-1.094,1.169v4.989
			c0,0.617,0.491,1.122,1.094,1.122h32.812c0.604,0,1.094-0.505,1.094-1.122v-4.989C29.497-3.28,29.007-3.806,28.403-3.806z"/>
	</g>
</g>
</svg>
